<svg width="1197" height="1178" viewBox="0 0 1197 1178" fill="none" xmlns="http://www.w3.org/2000/svg">
<rect width="1197" height="1178" fill="#1E1E1E"/>
<line x1="7.5" y1="-7.5" x2="438.506" y2="-7.5" transform="matrix(-0.999985 -0.00550504 0.00392659 -0.999992 833.294 307.353)" stroke="#F5A524" stroke-width="15" stroke-linecap="round"/>
<line x1="387.294" y1="251.583" x2="830.294" y2="251.583" stroke="#F5A524" stroke-width="15"/>
<path d="M586.763 776.721L585.966 777.324L4.29366 8.68633L5.09106 8.08289L586.763 776.721Z" fill="#F5A524"/>
<path d="M596.09 778.804L595.299 778.192L1193.29 4.08288L1194.09 4.69421L596.09 778.804Z" fill="#F5A524"/>
<line x1="394.794" y1="247.083" x2="394.794" y2="319.083" stroke="#F5A524" stroke-width="15"/>
<path d="M828.797 317.442L598.768 528.083" stroke="#F5A524" stroke-width="15" stroke-linecap="round"/>
<path d="M593.757 528.083L400.323 345.328" stroke="#F5A524" stroke-width="15" stroke-linecap="round"/>
<path d="M494.198 363.761L707.501 366.692L599.831 469.234L494.198 363.761Z" fill="#262D36" stroke="#F5A524" stroke-width="15"/>
<path d="M587.794 590.583L585.794 775.583L20.2936 28.0829L587.794 590.583Z" fill="#262D36" stroke="#13171C" stroke-width="12"/>
<path d="M1173.29 31.5829L587.794 1164.08L23.2936 33.5829L584.294 775.083L586.794 780.083H594.794L1173.29 31.5829Z" fill="#1A2027" stroke="#13171C"/>
<path d="M596.784 585.461C598.745 587.406 598.758 590.571 596.814 592.532C594.87 594.493 591.704 594.506 589.743 592.562L1.84403 9.60348C-0.116813 7.65911 -0.130171 4.49332 1.81419 2.53248C3.75856 0.571633 6.92435 0.558275 8.8852 2.50264L596.784 585.461Z" fill="#F5A524"/>
<path d="M591.005 1170.14C592.239 1172.61 591.237 1175.61 588.767 1176.85C586.296 1178.08 583.293 1177.08 582.059 1174.61L0.528187 10.5558C-0.705917 8.08547 0.296229 5.08245 2.76654 3.84834C5.23686 2.61424 8.23988 3.61638 9.47398 6.0867L591.005 1170.14Z" fill="#F5A524"/>
<path d="M598.794 590.583L597.298 775.078L1174.79 28.0829L598.794 590.583Z" fill="#262D36"/>
<path d="M597.294 775.583L598.794 590.583L1174.79 28.0829L597.294 775.083" stroke="#13171C" stroke-width="12"/>
<path d="M1187.73 1.42334C1189.7 -0.506288 1192.87 -0.469239 1194.8 1.5061C1196.73 3.48145 1196.69 6.64706 1194.72 8.57669L596.87 592.589C594.895 594.519 591.729 594.482 589.8 592.506C587.87 590.531 587.907 587.365 589.882 585.436L1187.73 1.42334Z" fill="#F5A524"/>
<path d="M1187.11 4.9312C1188.38 2.47845 1191.4 1.51793 1193.85 2.78614C1196.31 4.05435 1197.27 7.07105 1196 9.52399L593.59 1174.64C592.322 1177.09 589.305 1178.05 586.852 1176.79C584.399 1175.52 583.439 1172.5 584.707 1170.05L1187.11 4.9312Z" fill="#F5A524"/>
<g filter="url(#filter0_d_6_2)">
<path d="M593.346 1166.93L583.346 1166.85L588.294 584.04L598.293 584.125L593.346 1166.93Z" fill="#F5A524"/>
</g>
<defs>
<filter id="filter0_d_6_2" x="579.346" y="584.04" width="22.9471" height="590.891" filterUnits="userSpaceOnUse" color-interpolation-filters="sRGB">
<feFlood flood-opacity="0" result="BackgroundImageFix"/>
<feColorMatrix in="SourceAlpha" type="matrix" values="0 0 0 0 0 0 0 0 0 0 0 0 0 0 0 0 0 0 127 0" result="hardAlpha"/>
<feOffset dy="4"/>
<feGaussianBlur stdDeviation="2"/>
<feComposite in2="hardAlpha" operator="out"/>
<feColorMatrix type="matrix" values="0 0 0 0 0 0 0 0 0 0 0 0 0 0 0 0 0 0 0.25 0"/>
<feBlend mode="normal" in2="BackgroundImageFix" result="effect1_dropShadow_6_2"/>
<feBlend mode="normal" in="SourceGraphic" in2="effect1_dropShadow_6_2" result="shape"/>
</filter>
</defs>
</svg>
